<svg xmlns="http://www.w3.org/2000/svg" xmlns:xlink="http://www.w3.org/1999/xlink" version="1.1" x="0px" y="0px" viewBox="0 0 512 640" style="enable-background:new 0 0 512 512;" xml:space="preserve"><g><g><g><g><path d="M296,126L296,126c-6.08,0-11.97-1.19-17.521-3.54c-5.35-2.27-10.17-5.51-14.3-9.64s-7.37-8.94-9.64-14.3      C252.19,92.97,251,87.08,251,81c0-12,4.67-23.28,13.14-31.77c8.46-8.49,19.73-13.19,31.72-13.23h0.03c5.5,0,9.98,4.47,10,9.97      c0.01,2.67-1.03,5.18-2.91,7.08c-1.88,1.89-4.39,2.94-7.06,2.95c-13.75,0.04-24.93,11.25-24.92,25c0.02,13.76,11.24,24.97,25,25      c13.76-0.03,24.979-11.24,25-25v-0.1c-0.01-2.68,1.02-5.19,2.899-7.09c1.881-1.9,4.391-2.95,7.061-2.96H331      c5.49,0,9.979,4.47,10,9.96V81c0,6.08-1.19,11.97-3.54,17.52c-2.271,5.36-5.51,10.17-9.641,14.3      c-4.13,4.13-8.939,7.37-14.3,9.64C307.97,124.81,302.08,126,296,126z M320.66,66.16L320.66,66.16c-2.66,0-5.16-1.03-7.051-2.9      c0-0.01,0-0.01-0.01-0.01c-1.89-1.88-2.93-4.39-2.939-7.05c-0.011-2.67,1.02-5.19,2.899-7.08c1.891-1.91,4.41-2.96,7.101-2.96      c2.659,0,5.159,1.03,7.04,2.9c1.899,1.89,2.949,4.39,2.96,7.07c0.01,2.67-1.021,5.18-2.91,7.08      C325.859,65.11,323.34,66.16,320.66,66.16z"/></g><g><g><path d="M466,446H316c-5.522,0-10-4.478-10-10s4.478-10,10-10h140v-20H316c-5.522,0-10-4.478-10-10s4.478-10,10-10h150       c5.522,0,10,4.478,10,10v40C476,441.522,471.522,446,466,446z"/></g><g><path d="M246,436c0-5.521,4.48-10,10-10l0,0c5.52,0,10,4.479,10,10l0,0c0,5.52-4.48,10-10,10l0,0       C250.48,446,246,441.52,246,436z M186,436c0-5.521,4.48-10,10-10l0,0c5.52,0,10,4.479,10,10l0,0c0,5.52-4.48,10-10,10l0,0       C190.48,446,186,441.52,186,436z"/></g><g><path d="M196,446H46c-5.523,0-10-4.478-10-10v-40c0-5.522,4.477-10,10-10h150c5.523,0,10,4.478,10,10s-4.477,10-10,10H56v20       h140c5.523,0,10,4.478,10,10S201.523,446,196,446z"/></g><g><path d="M306,396c0-5.521,4.479-10,10-10l0,0c5.52,0,10,4.479,10,10l0,0c0,5.52-4.48,10-10,10l0,0       C310.479,406,306,401.52,306,396z M246,396c0-5.521,4.48-10,10-10l0,0c5.52,0,10,4.479,10,10l0,0c0,5.52-4.48,10-10,10l0,0       C250.48,406,246,401.52,246,396z"/></g></g><g><g><path d="M466,406H316c-5.522,0-10-4.478-10-10s4.478-10,10-10h140v-39c0-6.065-4.935-11-11-11h-68.022c-5.522,0-10-4.478-10-10       s4.478-10,10-10H445c17.094,0,31,13.906,31,31v49C476,401.522,471.522,406,466,406z"/></g><g><path d="M246,396c0-5.521,4.48-10,10-10l0,0c5.52,0,10,4.479,10,10l0,0c0,5.52-4.48,10-10,10l0,0       C250.48,406,246,401.52,246,396z M186,396c0-5.521,4.48-10,10-10l0,0c5.52,0,10,4.479,10,10l0,0c0,5.52-4.48,10-10,10l0,0       C190.48,406,186,401.52,186,396z"/></g><g><path d="M196,406H46c-5.523,0-10-4.478-10-10v-49c0-17.094,13.907-31,31-31h68.022c5.523,0,10,4.478,10,10s-4.477,10-10,10H67       c-6.065,0-11,4.935-11,11v39h140c5.523,0,10,4.478,10,10S201.523,406,196,406z"/></g><g><path d="M246,326c0-5.521,4.48-10,10-10l0,0c5.52,0,10,4.479,10,10l0,0c0,5.52-4.48,10-10,10l0,0       C250.48,336,246,331.52,246,326z"/></g></g><g><g><path d="M94.696,156c-8.008,0-14.952-5.133-18.943-13.016c-2.777,0.916-5.599,1.396-8.363,1.396       c-5.551,0-10.604-2.001-14.227-5.635c-5.667-5.666-6.945-14.214-4.18-22.615C41.119,112.135,36,105.198,36,97.206       c0-8.016,5.142-14.966,13.039-18.955c-2.743-8.394-1.452-16.927,4.215-22.578c3.615-3.616,8.667-5.613,14.214-5.613       c2.782,0,5.62,0.486,8.412,1.412c3.998-7.852,10.93-12.963,18.914-12.963c8.019,0,14.965,5.131,18.953,13.013       c2.774-0.914,5.593-1.393,8.355-1.393c5.548,0,10.601,1.998,14.228,5.624c5.671,5.672,6.948,14.223,4.179,22.627       c7.862,3.996,12.981,10.933,12.981,18.923c0,8.027-5.142,14.98-13.038,18.966c2.735,8.387,1.448,16.916-4.206,22.57       c-3.623,3.623-8.67,5.618-14.212,5.618h0c-2.786,0-5.629-0.488-8.426-1.417C109.61,150.891,102.679,156,94.696,156z        M82.16,117.5c1.291,0,2.591,0.25,3.83,0.764c3.702,1.536,6.129,5.134,6.167,9.142c0.041,4.293,1.543,7.196,2.538,8.274       c0.992-1.076,2.492-3.968,2.539-8.247c0.044-4.009,2.478-7.604,6.184-9.133c3.704-1.529,7.966-0.698,10.825,2.111       c2.767,2.719,5.792,3.978,7.637,4.044c-0.063-1.469-1.049-4.568-4.036-7.618c-2.805-2.866-3.627-7.13-2.088-10.833       c1.539-3.704,5.142-6.129,9.152-6.162c4.291-0.035,7.189-1.54,8.264-2.536c-1.074-0.993-3.968-2.494-8.25-2.541       c-4.009-0.044-7.604-2.478-9.133-6.184c-1.53-3.705-0.699-7.966,2.111-10.825c2.997-3.049,3.991-6.152,4.057-7.625       c-1.841,0.063-4.864,1.314-7.631,4.023c-2.866,2.806-7.131,3.627-10.833,2.088c-3.704-1.539-6.129-5.142-6.162-9.152       c-0.035-4.288-1.538-7.186-2.534-8.262c-0.994,1.077-2.496,3.971-2.542,8.248c-0.044,4.009-2.478,7.604-6.184,9.133       c-3.704,1.53-7.966,0.699-10.826-2.111c-2.766-2.718-5.793-3.973-7.636-4.036c0.065,1.468,1.054,4.564,4.035,7.61       c2.804,2.864,3.626,7.125,2.091,10.827c-1.536,3.702-5.134,6.129-9.142,6.167c-4.291,0.041-7.192,1.542-8.272,2.536       c1.079,0.994,3.972,2.494,8.245,2.541c4.009,0.044,7.604,2.478,9.133,6.184s0.699,7.966-2.111,10.826       c-2.998,3.051-3.987,6.155-4.048,7.624c1.839-0.065,4.858-1.317,7.622-4.022C77.069,118.489,79.594,117.5,82.16,117.5z"/></g></g><g><path d="M106,476c-5.523,0-10-4.478-10-10v-20H56v20c0,5.522-4.477,10-10,10s-10-4.478-10-10v-30c0-5.522,4.477-10,10-10h60      c5.523,0,10,4.478,10,10v30C116,471.522,111.523,476,106,476z"/></g><g><path d="M466,476c-5.522,0-10-4.478-10-10v-20h-40v20c0,5.522-4.478,10-10,10s-10-4.478-10-10v-30c0-5.522,4.478-10,10-10h60      c5.522,0,10,4.478,10,10v30C476,471.522,471.522,476,466,476z"/></g><g><path d="M171,296L171,296c-6.08,0-11.97-1.19-17.52-3.54c-5.35-2.271-10.17-5.51-14.3-9.641c-4.13-4.13-7.37-8.939-9.64-14.3      C127.19,262.97,126,257.08,126,251c0-12,4.67-23.28,13.14-31.77c8.46-8.49,19.73-13.19,31.72-13.23h0.03      c5.5,0,9.98,4.47,10,9.97c0.01,2.67-1.02,5.19-2.91,7.08c-1.88,1.89-4.39,2.94-7.06,2.95c-13.75,0.04-24.93,11.25-24.92,25      c0.02,13.76,11.24,24.979,25,25c13.76-0.021,24.97-11.24,25-25v-0.1c-0.02-5.52,4.44-10.02,9.96-10.05H206      c5.49,0,9.98,4.47,10,9.96V251c0,6.08-1.19,11.97-3.54,17.52c-2.26,5.36-5.51,10.17-9.64,14.3c-4.13,4.131-8.94,7.37-14.3,9.641      C182.97,294.81,177.08,296,171,296z M195.66,236.16L195.66,236.16c-2.66,0-5.16-1.03-7.05-2.9c-1.89-1.88-2.94-4.39-2.95-7.06      c-0.01-2.67,1.02-5.19,2.9-7.08c1.89-1.91,4.41-2.96,7.1-2.96c2.66,0,5.16,1.03,7.04,2.9c1.9,1.89,2.95,4.39,2.96,7.07      c0.01,2.67-1.02,5.18-2.91,7.08C200.86,235.11,198.34,236.16,195.66,236.16z"/></g><g><path d="M236,236c-5.523,0-10-4.477-10-10v-50c0-38.598,31.402-70,70-70s70,31.402,70,70v49.891c0,5.523-4.478,10-10,10      s-10-4.477-10-10V176c0-27.57-22.43-50-50-50s-50,22.43-50,50v50C246,231.523,241.523,236,236,236z"/></g><g><g><path d="M391,336h-5.073c-5.522,0-10-4.478-10-10s4.478-10,10-10H391c13.785,0,25-11.215,25-25s-11.215-25-25-25h-25v5       c0,13.785-11.215,25-25,25s-25-11.215-25-25v-5h-40v5c0,13.785-11.215,25-25,25s-25-11.215-25-25v-4.49       c-10.123,2.09-18.233,10.383-19.74,20.907c-0.705,4.925-4.923,8.583-9.899,8.583H106c-5.514,0-10,4.486-10,10       c0,4.867,3.613,9.113,8.404,9.875c5.454,0.868,9.172,5.992,8.305,11.447c-0.868,5.455-5.994,9.178-11.447,8.305       C86.625,333.299,76,320.839,76,306c0-16.542,13.458-30,30-30h82.58c6.255-17.589,23.179-30,42.42-30h5c5.523,0,10,4.477,10,10       v15c0,2.757,2.243,5,5,5s5-2.243,5-5v-15c0-5.523,4.478-10,10-10h60c5.522,0,10,4.477,10,10v15c0,2.757,2.243,5,5,5       s5-2.243,5-5v-15c0-5.523,4.478-10,10-10h35c24.813,0,45,20.187,45,45S415.813,336,391,336z"/></g><g><path d="M121.13,326c0-5.521,4.48-10,10-10l0,0c5.52,0,10,4.479,10,10l0,0c0,5.52-4.48,10-10,10l0,0       C125.61,336,121.13,331.52,121.13,326z"/></g><g><path d="M159.44,336c-5.51,0-10-4.49-10-10s4.49-10,10-10H329.3c5.52,0,10,4.49,10,10s-4.48,10-10,10H159.45       C159.45,336,159.45,336,159.44,336z M357.609,336c-5.51,0-10-4.49-10-10s4.49-10,10-10c5.521,0,10,4.49,10,10       S363.13,336,357.609,336z"/></g></g><g><path d="M341,296c-13.785,0-25-11.215-25-25v-65c0-5.523,4.478-10,10-10s10,4.477,10,10v65c0,2.757,2.243,5,5,5s5-2.243,5-5      v-64.969c0-5.523,4.478-10,10-10s10,4.477,10,10V271C366,284.785,354.785,296,341,296z"/></g><g><path d="M251,296c-13.785,0-25-11.215-25-25v-65c0-5.523,4.477-10,10-10s10,4.477,10,10v65c0,2.757,2.243,5,5,5s5-2.243,5-5      v-64.969c0-5.523,4.478-10,10-10s10,4.477,10,10V271C276,284.785,264.785,296,251,296z"/></g></g><rect x="426" y="196" width="20" height="20"/><rect x="446" y="176" width="20" height="20"/><rect x="406" y="176" width="20" height="20"/><rect x="426" y="156" width="20" height="20"/></g></g><text x="0" y="527" fill="#000000" font-size="5px" font-weight="bold" font-family="'Helvetica Neue', Helvetica, Arial-Unicode, Arial, Sans-serif">Created by Flatart</text><text x="0" y="532" fill="#000000" font-size="5px" font-weight="bold" font-family="'Helvetica Neue', Helvetica, Arial-Unicode, Arial, Sans-serif">from the Noun Project</text></svg>