<svg xmlns="http://www.w3.org/2000/svg" viewBox="0 0 794.4 779.93"><defs><style>.cls-1,.cls-2{stroke:#000;stroke-miterlimit:10;}.cls-2{stroke-width:0.5px;}</style></defs><title>BILANCIA</title><g id="Livello_1" data-name="Livello 1"><path class="cls-1" d="M715.32,788H84.85A81.7,81.7,0,0,1,3.39,706.54v-616A81.7,81.7,0,0,1,84.85,9.07H715.32a81.7,81.7,0,0,1,81.46,81.46v616A81.7,81.7,0,0,1,715.32,788Zm52.84-91.18V106.5A68.7,68.7,0,0,0,699.66,38H99a68.7,68.7,0,0,0-68.5,68.5V696.82A68.7,68.7,0,0,0,99,765.33H699.66A68.7,68.7,0,0,0,768.16,696.82Z" transform="translate(-2.89 -8.57)"/></g><g id="Livello_6" data-name="Livello 6"><rect x="382.5" y="101.2" width="29.39" height="56.01" rx="12" ry="12"/><rect x="484.14" y="110.65" width="29.39" height="70.62" rx="12" ry="12" transform="translate(181.57 -276.5) rotate(36.47)"/><rect x="576.92" y="143.62" width="29.39" height="70.62" rx="12" ry="12" transform="translate(284.74 -367.8) rotate(43.71)"/><rect x="285.84" y="111.76" width="29.39" height="70.62" rx="12" ry="12" transform="translate(622.36 57.76) rotate(139.96)"/><rect x="192.79" y="143.62" width="29.39" height="70.62" rx="12" ry="12" transform="translate(478.22 156.31) rotate(136.29)"/></g><g id="Livello_2" data-name="Livello 2"><rect class="cls-2" x="382.72" y="414.01" width="27.45" height="361.18" rx="11.66" ry="11.66"/></g><g id="Livello_3" data-name="Livello 3"><path class="cls-1" d="M400,192.12H386.39v84s-50.11-.92-88.29,21.38a19.22,19.22,0,0,1-21.9-1.91L152.08,192.93s71.51-62.57,234.53-68.69h13.92l-.19-29.49S210.51,92.17,122.11,177.5a17.78,17.78,0,0,0,.76,26.24l148.45,128.2a13,13,0,0,0,16.08.75c15.16-10.83,52.3-31.64,112.57-30.4Z" transform="translate(-2.89 -8.57)"/><path class="cls-1" d="M399.09,192.12l13.07.28v84s53.69-1.23,92.28,23.23a12.49,12.49,0,0,0,14.65-.93L647,192.93s-71.51-62.57-234.53-68.69H398.53l.19-29.49s190.11-2.59,278.42,82.94a17.54,17.54,0,0,1-.75,25.86L527.73,331.93a13,13,0,0,1-16.08.75c-15.16-10.83-52.3-31.64-112.57-30.4Z" transform="translate(-2.89 -8.57)"/></g></svg>