<svg xmlns="http://www.w3.org/2000/svg" data-name="Layer 1" viewBox="0 0 64 80" x="0px" y="0px"><title>Geomeetry-color-samliam-plus-delete</title><path d="M49,34.319a8.759,8.759,0,0,0-.168-1.7,9.722,9.722,0,0,0,1.073-17.6A8.449,8.449,0,0,0,50,13.766a8.839,8.839,0,0,0-8.241-8.792A7.068,7.068,0,0,0,32,3.239a7.068,7.068,0,0,0-9.759,1.735A8.839,8.839,0,0,0,14,13.766a8.449,8.449,0,0,0,.1,1.249,9.722,9.722,0,0,0,1.073,17.6,8.763,8.763,0,0,0,5.85,10.03c-.012.161-.018.322-.018.482a6.832,6.832,0,0,0,3.013,5.642,2.974,2.974,0,0,0,.388,4.76A2.967,2.967,0,0,0,24,55a3,3,0,0,0,3,3h.1a5,5,0,0,0,9.8,0H37a3,3,0,0,0,3-3,2.967,2.967,0,0,0-.4-1.471,2.974,2.974,0,0,0,.388-4.76A6.832,6.832,0,0,0,43,43.127c0-.16-.006-.321-.018-.482A8.807,8.807,0,0,0,49,34.319ZM23,43.127c0-.062.017-.125.02-.188A4.078,4.078,0,0,1,27,47h2a6.088,6.088,0,0,0-5.987-6.064l-.733-.01A6.832,6.832,0,0,1,17,34.319,6.7,6.7,0,0,1,17.147,33H20a6.006,6.006,0,0,1,6,6h2a8.009,8.009,0,0,0-8-8H16.605a8.024,8.024,0,0,1-3.347-2.013A8,8,0,0,0,21,21H19a6.006,6.006,0,0,1-6,6H12v.327a7.653,7.653,0,0,1-1-3.774,7.793,7.793,0,0,1,4-6.731V17h2a5.006,5.006,0,0,1,5,5h2a6.938,6.938,0,0,0-.685-3H24a5.006,5.006,0,0,0,5-5H27a3,3,0,0,1-3,3H22v.11A6.977,6.977,0,0,0,17,15h-.867A6.537,6.537,0,0,1,16,13.766a6.83,6.83,0,0,1,5.937-6.739A6.235,6.235,0,0,0,28.058,12H29V10h-.942a4.233,4.233,0,0,1-4.216-3.8A5.011,5.011,0,0,1,31,5.007V23.638L29.965,24.88a5.779,5.779,0,0,1-7.45,1.263l-1.03,1.714A7.749,7.749,0,0,0,31,26.7v20.3A5.048,5.048,0,0,1,28,48,4.943,4.943,0,0,1,23,43.127ZM32,60a3.006,3.006,0,0,1-2.829-2h5.658A3.006,3.006,0,0,1,32,60Zm5-4H27a1,1,0,0,1,0-2H37a1,1,0,0,1,0,2Zm1-4H26a1,1,0,0,1,0-2H38a1,1,0,0,1,0,2Zm1.988-11.055A6.076,6.076,0,0,0,34,47h2a4.069,4.069,0,0,1,4.01-4.055l.97-.011c0,.065.02.129.02.193A4.943,4.943,0,0,1,36,48a5.048,5.048,0,0,1-3-1.007V26.713a7.71,7.71,0,0,0,9.517,1.165l-1.034-1.711A5.745,5.745,0,0,1,34.038,24.9L33,23.64V5.007A5.011,5.011,0,0,1,40.158,6.2,4.233,4.233,0,0,1,35.942,10H35v2h.942a6.235,6.235,0,0,0,6.121-4.973A6.83,6.83,0,0,1,48,13.766a6.621,6.621,0,0,1-.134,1.241A7.98,7.98,0,0,0,41.765,18H40a3,3,0,0,1-3-3H35a5.006,5.006,0,0,0,5,5h.589A7.945,7.945,0,0,0,40,23h2a6.006,6.006,0,0,1,6-6h1v-.178a7.793,7.793,0,0,1,4,6.731A7.666,7.666,0,0,1,52.175,27H51a5.006,5.006,0,0,1-5-5H44a7,7,0,0,0,6.742,6.987A8.024,8.024,0,0,1,47.4,31H46a8.009,8.009,0,0,0-8,8h2a6.006,6.006,0,0,1,6-6h.853A6.7,6.7,0,0,1,47,34.319a6.833,6.833,0,0,1-5.279,6.607Z"/><rect x="7" y="4" width="2" height="10" transform="translate(-4 9.998) rotate(-53.119)"/><rect x="51" y="8" width="10" height="2" transform="translate(5.805 35.41) rotate(-36.881)"/><rect x="3" y="35" width="10" height="2" transform="translate(-20.005 12.005) rotate(-36.881)"/><rect x="55" y="31" width="2" height="10" transform="translate(-6.4 59.2) rotate(-53.13)"/><rect x="2" y="21" width="6" height="2"/><rect x="56" y="21" width="6" height="2"/><rect x="12.879" y="44.879" width="6" height="2" transform="translate(-27.79 24.665) rotate(-45)"/><rect x="47.121" y="42.879" width="2" height="6" transform="translate(-18.347 47.464) rotate(-45)"/><text x="0" y="79" fill="#000000" font-size="5px" font-weight="bold" font-family="'Helvetica Neue', Helvetica, Arial-Unicode, Arial, Sans-serif">Created by Sumit Saengthong</text><text x="0" y="84" fill="#000000" font-size="5px" font-weight="bold" font-family="'Helvetica Neue', Helvetica, Arial-Unicode, Arial, Sans-serif">from the Noun Project</text></svg>