<svg xmlns="http://www.w3.org/2000/svg" xmlns:xlink="http://www.w3.org/1999/xlink" version="1.1" x="0px" y="0px" viewBox="0 0 38 47.5" enable-background="new 0 0 38 38" xml:space="preserve"><path d="M29.912,4.899H8.088c-1.88,0-3.409,1.53-3.409,3.41v21.383c0,1.88,1.529,3.409,3.409,3.409h21.824  c1.881,0,3.41-1.529,3.41-3.409V8.309C33.322,6.429,31.793,4.899,29.912,4.899z M32.322,29.692c0,1.329-1.081,2.409-2.41,2.409H19.5  V19.099h-1v13.002H8.088c-1.328,0-2.409-1.081-2.409-2.409V8.309c0-1.329,1.081-2.41,2.409-2.41h21.824  c1.329,0,2.41,1.081,2.41,2.41V29.692z"/><path d="M19,7.646c-3.869,0-7.516,1.104-10.266,3.108c-0.125,0.091-0.201,0.234-0.205,0.388c-0.006,0.154,0.061,0.301,0.178,0.4  l5.682,4.756c0.176,0.146,0.43,0.156,0.615,0.021c1.063-0.774,2.481-1.201,3.996-1.201c1.516,0,2.934,0.427,3.996,1.201  c0.088,0.064,0.191,0.096,0.295,0.096c0.113,0,0.229-0.039,0.32-0.117l5.682-4.756c0.118-0.099,0.184-0.246,0.179-0.4  s-0.081-0.297-0.205-0.388C26.516,8.75,22.871,7.646,19,7.646z M23.26,15.289c-1.059-0.676-2.369-1.06-3.76-1.139v-2.997h-1v2.997  c-1.39,0.079-2.7,0.462-3.76,1.139l-4.888-4.092c0.396-0.259,0.813-0.493,1.243-0.715l1.057,1.03  c0.098,0.094,0.224,0.142,0.35,0.142c0.13,0,0.26-0.05,0.358-0.151c0.192-0.198,0.188-0.515-0.009-0.708l-0.793-0.771  c0.789-0.338,1.621-0.614,2.484-0.83l0.889,1.111c0.099,0.124,0.244,0.188,0.391,0.188c0.109,0,0.221-0.036,0.313-0.109  c0.215-0.172,0.25-0.487,0.078-0.703l-0.578-0.724c0.929-0.17,1.887-0.268,2.865-0.293v0.975c0,0.276,0.224,0.5,0.5,0.5  s0.5-0.224,0.5-0.5V8.663c0.979,0.025,1.938,0.124,2.866,0.293l-0.578,0.724c-0.173,0.216-0.138,0.53,0.079,0.703  c0.092,0.074,0.201,0.109,0.311,0.109c0.147,0,0.293-0.064,0.392-0.188l0.888-1.111c0.863,0.216,1.695,0.491,2.484,0.83  l-0.792,0.771c-0.198,0.193-0.202,0.509-0.009,0.708c0.098,0.101,0.228,0.151,0.357,0.151c0.127,0,0.252-0.047,0.35-0.142  l1.058-1.03c0.429,0.222,0.847,0.456,1.243,0.715L23.26,15.289z"/><text x="0" y="53" fill="#000000" font-size="5px" font-weight="bold" font-family="'Helvetica Neue', Helvetica, Arial-Unicode, Arial, Sans-serif">Created by An Chi</text><text x="0" y="58" fill="#000000" font-size="5px" font-weight="bold" font-family="'Helvetica Neue', Helvetica, Arial-Unicode, Arial, Sans-serif">from the Noun Project</text></svg>