<svg xmlns="http://www.w3.org/2000/svg" viewBox="0 0 1123.07 949"><defs><style>.cls-1,.cls-4{fill:#2f2f2f;}.cls-1{stroke:#ffc107;stroke-width:21px;}.cls-1,.cls-3{stroke-miterlimit:10;}.cls-2{fill:#fff;}.cls-3{fill:#c1272d;stroke:#c1272d;stroke-width:7px;}</style></defs><title>HF_LOGO</title><g id="Livello_2" data-name="Livello 2"><circle class="cls-1" cx="474.5" cy="474.5" r="464"/></g><g id="Livello_5" data-name="Livello 5"><path class="cls-2" d="M130.13,454.41c-9.9.32-32.63.24-36.73-7a1.78,1.78,0,0,1-.18-1.32C95.39,437.53,121.5,339,197.51,271.53a1.76,1.76,0,0,1,2.64.35c8,12,53.56,88.11,8.2,192.67a1.75,1.75,0,0,0,.45,2c9.37,8.1,82.48,76.56,52.15,216.71a1.75,1.75,0,0,1-.74,1.09c-6.05,4-57.4,38.57-76.16,56.66a1.75,1.75,0,0,0,1.39,3C207,742,297.32,735.13,370,757a1.72,1.72,0,0,0,1,0c8.69-2.62,128.11-39.19,174.52-82.81a1.68,1.68,0,0,1,.71-.4c11.8-3.29,282-82.31,277-413,0-1.59,1.5-1.77,3-1.26,2.52.85,3.52,3.65,6,6.28C861.52,297.29,952.11,404.29,958,527.54t0,.1l3.72,26.19c.61,5.41-.51,17.86-3.17,22.6-7.47,13.27-23.22,40.42-30.76,47-9.68,8.47-32-7.94-32.7-19.07a1.78,1.78,0,0,0-1.35-1.67c-4.53-1-19.12-5.35-27.43-19a1.68,1.68,0,0,0-.32-.38l-18.81-16.66a1.73,1.73,0,0,0-.95-.43c-4.78-.57-40.23-5.67-38.46-32.14a1.74,1.74,0,0,0-1.49-1.83c-6.47-.94-29.71-5.41-27.29-21.13a1.71,1.71,0,0,0-3.13-1.17l-43,57.87a1.75,1.75,0,0,0,.09,2.2C743,581.5,827.72,683.41,673,707c-159.86,24.37,23.29,20.23,32.63,20a1.7,1.7,0,0,0,.68-.16c6.21-2.89,97.52-42.74-266.65,291.54a1.75,1.75,0,0,1-1.55.43c-5.67-1.2-37.51-8.05-56.94-14.11a1.75,1.75,0,0,1,0-3.33C402.88,994,489.25,959.16,552.46,857a1.75,1.75,0,0,0-2.62-2.27c-24,20.17-100.24,70.09-284.23,92.2a1.75,1.75,0,0,1-1-.2C254,940.93,75.79,839.92,65,574.27a1.75,1.75,0,0,1,.06-.53c1.23-4.6,19.36-70,66.35-116.34A1.75,1.75,0,0,0,130.13,454.41Z" transform="translate(-36.5 -106.5)"/></g><g id="Livello_4" data-name="Livello 4"><path class="cls-3" d="M1100.2,416.15c-69.64-46.68-181.34-4.93-262.78,93.22-4,4.83,126.79,25.38,128.56,57.78,1.37,25,10,52.56-35.7,87-8.24,6.22-28.32,8-39.08,14.06-52.2,29.56-128.07,42.22-124.72,76.81,5.92,61.17,35.78,100.36,64.74,114.89,79.78,40,204-45.22,260.47-128.38C1174.47,609.71,1177.53,468,1100.2,416.15Z" transform="translate(-36.5 -106.5)"/></g><g id="Livello_3" data-name="Livello 3"><ellipse class="cls-3" cx="621.1" cy="422.72" rx="279.97" ry="168.56" transform="translate(-112.34 596.79) rotate(-56.17)"/></g><g id="Livello_7" data-name="Livello 7"><path class="cls-4" d="M832,264.78s47.33,36.62,102.82,157.37c0,0-46.1,30.07-60,43.24,0,0-36.33-39-62.76-29.11C812,436.29,854.42,341,832,264.78Z" transform="translate(-36.5 -106.5)"/><path class="cls-2" d="M910.7,608.06a11.52,11.52,0,0,0,3.61.07c7.54-1,34.77-6.82,48.25-38.85.06-.15,0-.31.11-.45,6.24-12.89,1.37-26.43-12.41-40.69-3.25-3.37-9.21-2.65-12.39-6.92-5-6.69-2-13.54-10.66-21.32-6.71-6-19-10.29-17.3-6.5,1.55,3.49-12.4-30-29.58-28.31a11.8,11.8,0,0,1-9.2-3.27c-8.1-7.66-25.65-22.61-42.7-26.28a12,12,0,0,0-14.21,14C821.3,487.86,846.87,596.33,910.7,608.06Z" transform="translate(-36.5 -106.5)"/></g><g id="Livello_6" data-name="Livello 6"><path class="cls-2" d="M474.54,596.3l-3.22-5.72c-.5-.95-1.15-2-1.7-3.15l-1.89-3.89-1.06-2.19c-.37-.75-.76-1.53-1.08-2.37l-2.18-5.27a168.52,168.52,0,0,1-8.44-27.8c-.6-2.75-1.06-5.62-1.62-8.56-.3-1.47-.48-3-.68-4.5l-.63-4.64c-.24-1.57-.37-3.16-.5-4.78l-.4-4.91c-.17-1.66-.18-3.33-.26-5l-.2-5.15A238.47,238.47,0,0,1,454,463.66c1.23-7.87,3-15.86,4.95-24,2.1-8.09,4.48-16.3,7.35-24.49a350.46,350.46,0,0,1,21.13-49.12c1-2,2.14-4,3.23-6s2.18-4,3.33-6c2.32-4,4.58-8,7.07-11.85,4.81-7.87,10.06-15.5,15.43-23,2.76-3.71,5.49-7.46,8.38-11.07s5.79-7.21,8.73-10.76c6-7,12.14-13.86,18.59-20.31,3.16-3.29,6.51-6.38,9.75-9.52l5-4.53,2.51-2.25,2.57-2.17c6.77-5.86,13.83-11.21,20.9-16.3l5.35-3.7c1.76-1.25,3.62-2.35,5.41-3.52,3.56-2.38,7.28-4.44,10.9-6.56,1.84-1,3.7-2,5.53-3l2.74-1.46,2.79-1.34c1.85-.88,3.68-1.79,5.53-2.64l5.56-2.39A167.94,167.94,0,0,1,658.83,210c3.63-1.05,7.29-1.74,10.85-2.5,1.78-.38,3.58-.59,5.35-.88s3.51-.59,5.26-.71a117,117,0,0,1,38,1.63,105.64,105.64,0,0,1,27.42,10,114.35,114.35,0,0,1,15.66,10.14l5.11,4.14L761,228.19l-1.41-.94-1.63-.93-3.72-2.12c-.68-.37-1.35-.81-2.1-1.16l-2.31-1.11c-1.6-.75-3.25-1.65-5.07-2.41a110,110,0,0,0-27.22-7.79,18.16,18.16,0,0,0-2-.28l-2.08-.22-4.26-.44-4.4-.16c-1.49,0-3-.15-4.52-.06l-4.63.12-1.17,0-1.18.1-2.38.2c-1.59.16-3.21.22-4.83.47l-4.91.72c-1.66.2-3.31.59-5,.93s-3.37.64-5.05,1.09c-3.37.9-6.81,1.72-10.23,2.89l-2.59.83-1.3.41-1.29.47-5.21,1.91c-1.76.62-3.46,1.42-5.21,2.13s-3.51,1.44-5.23,2.3l-5.24,2.48c-1.74.87-3.46,1.81-5.21,2.72L627,231.73l-2.59,1.49c-1.73,1-3.48,2-5.21,3-6.86,4.27-13.79,8.77-20.53,13.8a318.33,318.33,0,0,0-38.82,34.39,381,381,0,0,0-34.43,41.14c-5.25,7.31-10.38,14.72-15.08,22.35-2.43,3.77-4.65,7.65-7,11.47-1.13,1.92-2.2,3.88-3.3,5.81s-2.2,3.86-3.21,5.83l-3.1,5.86c-1,2-2,3.95-3,5.9-2,3.9-3.8,7.89-5.65,11.82-3.55,7.93-6.88,15.84-9.74,23.78S470,434.25,467.66,442c-2.16,7.82-4.16,15.52-5.62,23.11-.37,1.9-.77,3.78-1.11,5.65l-.91,5.6c-.67,3.7-1,7.38-1.52,11-.27,1.8-.38,3.6-.56,5.38l-.49,5.29c-.19,3.5-.4,6.95-.51,10.32a217.21,217.21,0,0,0,2.12,36.8A185.34,185.34,0,0,0,465.45,573l1.76,5.36c.53,1.69,1.19,3.21,1.72,4.66l1.53,4c.44,1.24,1,2.3,1.42,3.29Z" transform="translate(-36.5 -106.5)"/></g><g id="Livello_8" data-name="Livello 8"><path class="cls-2" d="M946.7,456.54l1.46-.84c1-.54,2.32-1.37,4.16-2.32.91-.48,1.92-1,3-1.59L959,450l4.19-1.87c1.49-.61,3.06-1.27,4.72-1.91,3.33-1.24,7-2.54,10.88-3.69s8.11-2.2,12.48-3.13,9-1.62,13.66-2.12,9.5-.72,14.32-.74,9.66.16,14.44.55a86.55,86.55,0,0,1,13.93,2.25,71.59,71.59,0,0,1,12.47,4.49c1.94.83,3.73,1.85,5.49,2.77s3.35,2,4.9,3,3,2.06,4.28,3.07,2.54,2,3.65,3,2.1,2,3,2.86,1.68,1.8,2.39,2.59,1.32,1.51,1.81,2.17.93,1.21,1.26,1.67c.67.91,1,1.41,1,1.41l-.74.82s-.55-.26-1.54-.77-2.38-1.32-4.24-2.19c-.92-.44-1.89-1-3-1.51s-2.29-1.07-3.53-1.68l-4-1.79-4.47-1.86c-3.15-1.18-6.52-2.48-10.17-3.61s-7.49-2.23-11.49-3.35-8.18-2.17-12.49-3.13a108.88,108.88,0,0,0-13.28-2c-4.51-.34-9-.44-13.52-.37s-8.88.37-13.15.83-8.37,1.06-12.25,1.8-7.53,1.57-10.88,2.42l-4.79,1.33L960,452.7c-2.67.91-5,1.71-6.88,2.44s-3.39,1.34-4.4,1.75l-1.55.64Z" transform="translate(-36.5 -106.5)"/><path class="cls-2" d="M815.06,801.57l-2.27-3.19c-.72-1-1.54-2.31-2.5-3.79s-2-3.17-3-5.06l-1.62-3L804,783.36c-.59-1.1-1.09-2.27-1.65-3.45s-1.09-2.41-1.62-3.65-1.08-2.52-1.58-3.82-1-2.62-1.48-4c-1-2.69-1.86-5.45-2.7-8.23l-2.52-8.31a66.52,66.52,0,0,1-2-8.18c-.2-1.35-.36-2.68-.47-4s-.13-2.59-.16-3.84a67.94,67.94,0,0,1,.22-7,61.12,61.12,0,0,1,1.73-10.52c.34-1.26.64-2.26.88-2.93s.38-1,.38-1l1.1,0s.18.35.46,1,.67,1.6,1.14,2.81a103.46,103.46,0,0,1,3.11,10c.55,2.06,1.07,4.24,1.59,6.6.27,1.17.52,2.36.74,3.59s.44,2.48.61,3.76c.36,2.56.54,5.23.75,8s.51,5.48,1,8.22,1,5.46,1.53,8.13c.26,1.34.59,2.65.88,4s.59,2.6.91,3.86c.61,2.54,1.33,5,2,7.27l1,3.35,1,3.1c.68,2,1.35,3.8,1.95,5.41l1.64,4.13L816,801Z" transform="translate(-36.5 -106.5)"/><path class="cls-2" d="M1087.49,537l1.24,3.94c.42,1.28.82,2.9,1.32,4.8s1,4.11,1.48,6.59a136.31,136.31,0,0,1,2.27,18.17L1094,576l0,5.82c-.06,2-.14,4-.25,6.13s-.3,4.23-.53,6.41a182.61,182.61,0,0,1-5,27.86,214.16,214.16,0,0,1-10.34,29.88,237.5,237.5,0,0,1-15.57,30,259,259,0,0,1-20.14,28.49c-3.7,4.53-7.57,8.92-11.52,13.21s-8.08,8.37-12.29,12.3-8.49,7.72-12.9,11.25c-2.17,1.8-4.42,3.49-6.62,5.2L995.5,755q-1.67,1.23-3.37,2.39c-4.49,3.16-9.05,6.06-13.59,8.77-2.3,1.3-4.54,2.65-6.83,3.84l-3.4,1.81-3.41,1.69a166.08,166.08,0,0,1-26.4,10.3,129.57,129.57,0,0,1-23.43,4.75,108.77,108.77,0,0,1-18.34.55,99.54,99.54,0,0,1-11.67-1.33L881,787l4.13.17c1.34.08,3,0,4.94,0,1,0,2-.07,3.12-.1s2.29,0,3.53-.17a128.57,128.57,0,0,0,17.69-2.52c3.37-.7,6.91-1.62,10.61-2.71l5.65-1.77c1.9-.69,3.86-1.32,5.83-2.1s4-1.53,6-2.43l3-1.32,3.06-1.44c2.06-.94,4.11-2,6.21-3.05s4.19-2.19,6.27-3.41c4.21-2.35,8.43-5,12.68-7.72s8.49-5.73,12.66-9A266,266,0,0,0,1011,728.38c4-3.83,7.82-7.89,11.65-12s7.46-8.38,11-12.75,7-8.79,10.25-13.36q1.24-1.69,2.42-3.42l2.39-3.43c1.53-2.33,3.11-4.61,4.56-7,3-4.66,5.75-9.4,8.41-14.13,1.3-2.38,2.6-4.74,3.79-7.13s2.39-4.76,3.55-7.13a239.38,239.38,0,0,0,11.28-28.18,207.85,207.85,0,0,0,6.7-26.4,176.48,176.48,0,0,0,2.59-23,170.78,170.78,0,0,0-.24-17.92c-.39-5-.83-8.87-1.26-11.54Z" transform="translate(-36.5 -106.5)"/><path class="cls-2" d="M762.49,341l.69,4.28c.25,1.39.41,3.13.65,5.18s.4,4.41.58,7.06a151.81,151.81,0,0,1-.2,19.18,165.23,165.23,0,0,1-3.68,24.69,203.91,203.91,0,0,1-8.5,28.36,246.52,246.52,0,0,1-13.84,30,316.09,316.09,0,0,1-41.36,58.45c-8.1,9.12-16.65,17.83-25.46,26-4.42,4.06-8.85,8-13.38,11.77-2.23,1.91-4.52,3.72-6.77,5.56s-4.53,3.59-6.82,5.29c-9.08,6.92-18.19,13.15-27.08,18.66q-6.67,4.13-13.13,7.71c-4.32,2.35-8.52,4.57-12.62,6.57s-8,3.87-11.86,5.52c-1.91.82-3.79,1.57-5.6,2.32l-5.34,2.07a189.36,189.36,0,0,1-18.21,5.87c-2.54.73-4.86,1.23-6.86,1.71s-3.72.78-5.11,1l-4.27.73,4.12-1.34c1.34-.44,3-1,4.9-1.71l3.07-1.17q1.65-.59,3.47-1.34c4.87-1.93,10.69-4.49,17.24-7.66l5-2.53c1.71-.91,3.47-1.81,5.26-2.79,3.57-2,7.34-4,11.17-6.29,7.69-4.55,15.83-9.78,24.2-15.64s17-12.34,25.59-19.4,17.22-14.7,25.69-22.74,16.71-16.59,24.53-25.49c2-2.19,3.9-4.46,5.84-6.69s3.82-4.52,5.64-6.83q5.58-6.87,10.77-13.91c1.71-2.36,3.42-4.7,5.06-7.08s3.26-4.74,4.86-7.1c3.12-4.78,6.15-9.53,8.95-14.31A279.35,279.35,0,0,0,744.4,426.6c1-2.32,2-4.63,3-6.91s1.84-4.54,2.65-6.79l1.24-3.33c.4-1.11.76-2.21,1.13-3.3.77-2.18,1.43-4.35,2.07-6.47a200.63,200.63,0,0,0,5.61-23.61c1.18-7.15,1.84-13.46,2.18-18.68s.37-9.34.32-12.17Z" transform="translate(-36.5 -106.5)"/><path class="cls-2" d="M669.67,302.33l1.74,2.72,2.06,3.28c.39.65.87,1.32,1.28,2.1l1.27,2.5c.87,1.78,2,3.73,2.93,5.92s1.86,4.63,2.89,7.22,1.72,5.47,2.66,8.47c.44,1.5.72,3.09,1.09,4.69s.73,3.26,1.06,4.95l.72,5.23c.24,1.78.53,3.6.59,5.46l.34,5.68a28.48,28.48,0,0,1,.05,2.91l0,3,0,3,0,1.51-.13,1.52-.52,6.16c-.06,1-.22,2.08-.38,3.12l-.49,3.14c-.33,2.1-.62,4.24-1.14,6.34l-1.42,6.4L682.32,404c-.33,1.07-.59,2.16-1,3.21l-1.13,3.18-1.16,3.19-.58,1.6-.67,1.57a160.26,160.26,0,0,1-12.65,24.49L661.31,447c-1.3,1.91-2.74,3.71-4.11,5.56l-2.07,2.76-2.23,2.62c-1.51,1.73-2.93,3.51-4.49,5.17L643.72,468c-.39.4-.78.81-1.18,1.2l-1.24,1.14-2.47,2.27c-3.2,3.1-6.72,5.78-10.06,8.51l-5.22,3.76L621,486.74l-2.67,1.65L613,491.63l-5.31,2.83-2.61,1.37-2.65,1.2-5.18,2.31c-1.71.73-3.46,1.29-5.13,1.92s-3.31,1.26-5,1.74l-4.86,1.37c-1.59.42-3.1.94-4.66,1.19l-4.48.88-2.14.42-1,.2-1,.13c-2.76.33-5.33.68-7.71.93s-4.59.18-6.57.27l-2.8.1c-.88,0-1.71-.07-2.47-.1l-3.89-.2-3.22-.2,3.2-.44,3.83-.49c.75-.1,1.56-.18,2.41-.33l2.72-.52c1.91-.38,4-.75,6.3-1.24s4.7-1.22,7.3-1.89l1-.25,1-.33,2-.67,4.16-1.39c1.43-.43,2.84-1.07,4.31-1.64L585,497c1.51-.63,3-1.4,4.55-2.11s3.12-1.42,4.67-2.26l4.7-2.59,2.4-1.32,2.35-1.49,4.8-3,4.73-3.37,2.4-1.71,2.33-1.85,4.72-3.77A184.93,184.93,0,0,0,640.46,456c1.43-1.58,2.72-3.29,4.09-4.93l2-2.49,1.92-2.59c1.26-1.75,2.61-3.43,3.8-5.23l3.56-5.41c.62-.88,1.16-1.82,1.71-2.75l1.65-2.79,1.65-2.79c.52-.94,1-1.91,1.5-2.86l1.48-2.86c.48-1,1-1.88,1.46-2.86l2.66-5.82.66-1.45.58-1.48,1.15-2.95,1.17-2.93c.4-1,.68-2,1-3l1.95-5.9,1.61-5.91c.59-1.94,1-3.92,1.36-5.87l.61-2.91c.21-1,.43-1.92.55-2.89l.86-5.73.21-1.41.12-1.41.25-2.8a136.24,136.24,0,0,0,.26-21c-.33-3.25-.66-6.37-1-9.35-.53-2.94-1-5.76-1.51-8.39s-1.31-5-1.84-7.3-1.35-4.24-1.93-6.09l-.86-2.62c-.27-.83-.62-1.58-.89-2.29l-1.45-3.59Z" transform="translate(-36.5 -106.5)"/></g></svg>