<svg xmlns="http://www.w3.org/2000/svg" xmlns:xlink="http://www.w3.org/1999/xlink" version="1.1" x="0px" y="0px" viewBox="0 0 100 125" enable-background="new 0 0 100 100" xml:space="preserve"><path d="M79.2,29.7c-1.3-1.2-1.8-3.1-1.1-4.7l0.6-1.5c1-2.3-0.3-4.9-2.7-5.6l-1.6-0.4c-1.7-0.5-2.9-2-3-3.8L71.4,12  c-0.1-2.5-2.4-4.3-4.8-3.9L65,8.4c-1.8,0.3-3.5-0.5-4.3-2.1l-0.8-1.4c-1.2-2.2-4-2.8-6-1.4l-1.3,0.9c-1.4,1-3.4,1-4.8,0l-1.3-1  c-2-1.5-4.9-0.8-6.1,1.4l-0.8,1.4c-0.9,1.6-2.6,2.4-4.4,2.1l-1.6-0.3c-2.5-0.4-4.7,1.4-4.9,3.9l-0.1,1.6c-0.1,1.8-1.3,3.3-3,3.8  L24,17.8c-2.4,0.7-3.7,3.3-2.7,5.6l0.6,1.5c0.7,1.6,0.2,3.5-1.1,4.7l-1.2,1.1c-1.9,1.6-1.9,4.6,0,6.2l1.2,1.1  c1.3,1.2,1.8,3.1,1.1,4.7l-0.6,1.5c-1,2.3,0.3,4.9,2.7,5.6l1.6,0.4c1.7,0.5,2.9,2,3,3.8l0.1,1.6c0.1,2.5,2.4,4.3,4.8,3.9l1.6-0.3  c1.8-0.3,3.5,0.5,4.3,2.1l0.8,1.4c1.2,2.2,4,2.8,6,1.4l1.3-0.9c1.4-1,3.4-1,4.8,0l1.3,1c2,1.5,4.9,0.8,6.1-1.4l0.8-1.4  c0.9-1.6,2.6-2.4,4.4-2.1l1.6,0.3c2.5,0.4,4.7-1.4,4.9-3.9l0.1-1.6c0.1-1.8,1.3-3.3,3-3.8l1.6-0.4c2.4-0.7,3.7-3.3,2.7-5.6l-0.6-1.5  c-0.7-1.6-0.2-3.5,1.1-4.7l1.2-1.1c1.9-1.6,1.9-4.6,0-6.2L79.2,29.7z M50,52.7c-10.4,0-18.9-8.4-18.9-18.9  c0-10.4,8.4-18.9,18.9-18.9c10.4,0,18.9,8.4,18.9,18.9C68.9,44.2,60.4,52.7,50,52.7z M57.3,24.2l4.5,4.5L51.5,39L47,43.4l-4.5-4.5  l-4.3-4.3l4.5-4.5l4.3,4.3L57.3,24.2z M18.6,89.3l9.8-24.5c1.3,0.6,2.8,1,4.3,1c0.6,0,1.2-0.1,1.8-0.2l0.2,0l0.1,0.2  C36.5,69,40,71,43.8,71c1,0,2.1-0.2,3-0.5L36.5,96.4c-0.3,0.8-1.4,0.9-1.8,0.1l-4.9-8.6c-0.2-0.3-0.5-0.4-0.8-0.3l-9.2,2.9  C19,90.8,18.3,90,18.6,89.3z M63.5,96.7l-10.4-26c1,0.3,2,0.5,3,0.5c3.8,0,7.2-2,9-5.3l0.1-0.2l0.2,0c0.6,0.1,1.2,0.2,1.8,0.2  c1.6,0,3-0.4,4.4-1l9.8,24.7c0.3,0.8-0.4,1.6-1.2,1.3l-9.2-2.9c-0.3-0.1-0.6,0-0.8,0.3l-4.9,8.6C64.9,97.5,63.8,97.4,63.5,96.7z"/><text x="0" y="115" fill="#000000" font-size="5px" font-weight="bold" font-family="'Helvetica Neue', Helvetica, Arial-Unicode, Arial, Sans-serif">Created by Gregor Cresnar</text><text x="0" y="120" fill="#000000" font-size="5px" font-weight="bold" font-family="'Helvetica Neue', Helvetica, Arial-Unicode, Arial, Sans-serif">from the Noun Project</text></svg>