<svg id="Livello_2" data-name="Livello 2" xmlns="http://www.w3.org/2000/svg" viewBox="0 0 795.72 794.83"><defs><style>.cls-1{fill:#fff;}</style></defs><title>FITNESS</title><path d="M671.29,54.7c-18.57,0-38,7.07-52.16,22.1l-3.34,3.34a5.29,5.29,0,0,1-7.48,0L553.7,25.52c-15.91-15.91-35.37-23-54.82-23s-39.79,7.07-54.82,22.1A71.87,71.87,0,0,0,431,42.39a5.25,5.25,0,0,1-7.9,1.73,77.88,77.88,0,0,0-48-16.82c-19.45,0-39.79,7.07-54.82,22.1s-23,35.37-22.1,54.82c0,19.45,7.07,39.79,22.1,54.82l99,99,16,16.19a5.29,5.29,0,0,1,0,7.46L280,436a5.29,5.29,0,0,1-7.49,0l-15.93-16.16-98.14-99c-15-15-35.37-23-54.82-22.1-19.45,0-39.79,7.07-54.82,22.1s-22.1,34.48-22.1,54.82a76,76,0,0,0,16.79,47.94,5.26,5.26,0,0,1-1.71,7.92A71.88,71.88,0,0,0,24.1,444.6C9.07,459.63,2,480,2,499.42s7.07,39.79,22.1,54.82l54.61,54.61a5.29,5.29,0,0,1,0,7.48l-3.34,3.34c-14.15,14.15-22.1,33.6-22.1,52.16s7.07,38,22.1,52.16c14.15,14.15,33.6,22.1,52.16,22.1s38-7.07,52.16-22.1l3.34-3.34a5.29,5.29,0,0,1,7.48,0l54.61,54.61h0a75.56,75.56,0,0,0,53.93,22.1c19.45,0,39.79-7.07,54.82-22.1A71.87,71.87,0,0,0,367,757.51a5.25,5.25,0,0,1,7.9-1.73,77.88,77.88,0,0,0,48,16.82c19.45,0,39.79-7.07,54.82-22.1s22.1-34.48,22.1-54.82c0-19.45-7.07-39.79-22.1-54.82l-97.25-97.25h0l-17.28-17.28a5.29,5.29,0,0,1,0-7.48l155.2-155.2a5.29,5.29,0,0,1,7.48,0l17.28,17.28h0l98.14,99c15,15,34.48,22.1,54.82,22.1,19.45,0,39.79-7.07,54.82-22.1S773,445.48,773,425.15a76,76,0,0,0-16.79-47.94,5.26,5.26,0,0,1,1.71-7.92,71.88,71.88,0,0,0,17.73-13.1c15-15,22.1-34.48,22.1-54.82a75.56,75.56,0,0,0-22.1-53.93h0l-55.5-55.5a5.29,5.29,0,0,1,0-7.48l3.34-3.34c14.15-14.15,22.1-33.6,22.1-52.16s-7.07-38-22.1-52.16C709.3,61.77,690.74,54.7,671.29,54.7ZM495.14,340.47l-155.2,155.2a5.29,5.29,0,0,1-7.48,0l-27-27a5.29,5.29,0,0,1,0-7.48L460.66,306a5.29,5.29,0,0,1,7.48,0l27,27A5.29,5.29,0,0,1,495.14,340.47Z" transform="translate(-2 -2.53)"/><rect class="cls-1" x="416.53" y="148.43" width="403.26" height="75.11" rx="37.56" ry="37.56" transform="translate(310.57 -385.16) rotate(45)"/><rect class="cls-1" x="268.95" y="219.6" width="538.11" height="89.8" rx="44.9" ry="44.9" transform="translate(342.61 -305.49) rotate(45)"/><rect class="cls-1" x="-9.05" y="487.22" width="538.11" height="89.8" rx="44.9" ry="44.9" transform="translate(450.42 -30.53) rotate(45)"/><rect class="cls-1" x="-15.94" y="579.25" width="403.26" height="75.11" rx="37.56" ry="37.56" transform="translate(488.54 46.82) rotate(45)"/><path class="cls-1" d="M105.84,632.43,169.24,696S129.31,737.39,97,706.31C65,675.57,105.84,632.43,105.84,632.43Z" transform="translate(-2 -2.53)"/><path class="cls-1" d="M697.12,168.88l-63.4-63.59S673.64,63.92,706,95C738,125.74,697.12,168.88,697.12,168.88Z" transform="translate(-2 -2.53)"/></svg>