<svg id="Livello_2" data-name="Livello 2" xmlns="http://www.w3.org/2000/svg" viewBox="0 0 753.93 752.93"><defs><style>.cls-1,.cls-2{fill:none;stroke:#000;stroke-linecap:round;stroke-miterlimit:10;}.cls-1{stroke-width:21px;}.cls-2{stroke-width:19px;}</style></defs><title>cervello</title><path class="cls-1" d="M406.59,640.43s-45,44-100-9c0,0-73,8-66-63" transform="translate(-18.5 -37.5)"/><path class="cls-1" d="M328.59,530.43s-157,88-119-70c0,0-78.69-16.37-32.69-92.37,0,0-30.31-86.63,36.69-107.63s105,31,105,31" transform="translate(-18.5 -37.5)"/><path class="cls-1" d="M216.59,249.43s0-47.43,46.37-52.64c5.63-.63,10-5.35,13.15-10C288.81,168,329,125.47,406.59,185.43c0,0,55.74-57.87,111.54-2.06,10.22,10.22,10.22,10.22,17.35,11.27C552.66,197.15,598,198,603,254.82c0,0,58.59,38.62,27.59,109.62s-120,8-120,8" transform="translate(-18.5 -37.5)"/><path class="cls-1" d="M514.59,441.43s44,11,44-39" transform="translate(-18.5 -37.5)"/><path class="cls-1" d="M633.59,375.43s27,56-17,85c0,0,28,59.43-42,97.21,0,0,6,53.79-38,66.79s-76-11.43-76-11.43" transform="translate(-18.5 -37.5)"/><path class="cls-1" d="M500.5,638.22c-32,35-93,7.22-93,7.22V185" transform="translate(-18.5 -37.5)"/><path class="cls-1" d="M400.59,585.43s-25,26-61,0" transform="translate(-18.5 -37.5)"/><path class="cls-1" d="M418.59,519.43s49,75,118-8" transform="translate(-18.5 -37.5)"/><path class="cls-1" d="M376,394.3s-108.24,87.85-148.41-64.82" transform="translate(-18.5 -37.5)"/><path class="cls-1" d="M360.59,471.43s-55,6-50-49" transform="translate(-18.5 -37.5)"/><path class="cls-1" d="M406.59,241.43s-12,37-51,24" transform="translate(-18.5 -37.5)"/><path class="cls-1" d="M418.59,293.43c-2.1,11.44,16.91,70,64,30" transform="translate(-18.5 -37.5)"/><path class="cls-1" d="M541,329.48s16.73-107.92-72.41-73.57" transform="translate(-18.5 -37.5)"/><rect class="cls-2" x="319.5" y="620.73" width="141" height="40.46" rx="19.55" ry="19.55"/><rect class="cls-2" x="318.5" y="662.26" width="141" height="40.46" rx="19.55" ry="19.55"/><path class="cls-2" d="M376.39,740.22s2.27,40.71,33,40.71c33.24,0,33-39.4,33-39.4" transform="translate(-18.5 -37.5)"/><line class="cls-1" x1="24.85" y1="39.35" x2="133.15" y2="147.65"/><line class="cls-1" x1="21.5" y1="272.46" x2="107.5" y2="311.5"/><line class="cls-1" x1="10.5" y1="493.47" x2="113.5" y2="449.5"/><line class="cls-1" x1="634.28" y1="517.22" x2="740.28" y2="590.2"/><line class="cls-1" x1="677.57" y1="326.42" x2="743.43" y2="298.3"/><line class="cls-1" x1="605.73" y1="147.5" x2="734.73" y2="50.5"/><line class="cls-1" x1="156.5" y1="609.5" x2="123.5" y2="633.5"/><line class="cls-1" x1="291.77" y1="66.5" x2="253.5" y2="10.5"/><line class="cls-2" x1="483.67" y1="79.5" x2="527.5" y2="17.5"/></svg>