<svg xmlns="http://www.w3.org/2000/svg" viewBox="0 0 517.96 789.57"><defs><style>.cls-1{stroke:#000;stroke-miterlimit:10;}</style></defs><title>PREMIUM</title><g id="Livello_4" data-name="Livello 4"><path class="cls-1" d="M423,544.46l102.75,247.8a1.32,1.32,0,0,0,2.4.08l40.07-80.88a1.32,1.32,0,0,1,1.56-.68l90.93,27.13a1.32,1.32,0,0,0,1.61-1.73L569.72,493a1.31,1.31,0,0,0-2.29-.3c-2.3,3.22-8.06,8.91-20.58,10.31-17,1.91-23.07-7.45-36.77-2.61-15.07,5.33-11.16,40.26-39.39,46.78-24.9,5.75-39.41-.33-45.74-4.35A1.31,1.31,0,0,0,423,544.46Z" transform="translate(-146.34 -4)"/><path class="cls-1" d="M249.68,507.73a3,3,0,0,1,3.15-1.81c6,.79,22.25,2.31,30.71-3.36,12.77-8.56,26.24.46,27.86,9.87.84,4.88,8.65,29.53,31,33.52,23.09,4.13,40.7-.53,50.06-4a3,3,0,0,1,3.82,3.93L316,746.17a3,3,0,0,1-5.4.33l-46.16-83.09a3,3,0,0,0-3.66-1.36l-83.85,31a3,3,0,0,1-3.8-4Z" transform="translate(-146.34 -4)"/></g><g id="Livello_3" data-name="Livello 3"><path d="M431.28,25.21h0c4.62,22.7,34.09,29,47.54,10.1h0c16.76-23.5,53.69-7.06,47.44,21.12h0c-5,22.61,19.36,40.32,39.32,28.57h0c24.87-14.65,51.92,15.39,34.75,38.59h0c-13.78,18.62,1.29,44.71,24.3,42.09h0c28.68-3.27,41.17,35.18,16,49.39h0c-20.16,11.41-17,41.37,5.08,48.33h0c27.53,8.68,23.3,48.88-5.43,51.65h0c-23.06,2.22-32.37,30.87-15,46.22h0c21.62,19.13,1.41,54.13-26,45h0c-22-7.35-42.13,15-32.52,36.12h0c12,26.27-20.73,50-42,30.52h0c-17.08-15.65-44.6-3.4-44.4,19.77h0c.25,28.86-39.29,37.27-50.8,10.8h0c-9.24-21.24-39.36-21.24-48.6,0h0c-11.51,26.47-51,18.07-50.8-10.8h0c.2-23.16-27.32-35.42-44.4-19.77h0c-21.28,19.5-54-4.26-42-30.52h0c9.61-21.08-10.55-43.47-32.52-36.12h0c-27.37,9.16-47.59-25.85-26-45h0c17.35-15.35,8-44-15-46.22h0c-28.73-2.77-33-43-5.43-51.65h0c22.09-7,25.24-36.93,5.08-48.33h0c-25.12-14.21-12.63-52.66,16-49.39h0c23,2.62,38.08-23.47,24.3-42.09h0c-17.17-23.2,9.88-53.24,34.75-38.59h0c20,11.76,44.33-6,39.32-28.57h0c-6.25-28.18,30.68-44.62,47.44-21.12h0c13.45,18.86,42.92,12.59,47.54-10.1h0C385.11-3.07,425.53-3.07,431.28,25.21Zm-26,72.07A164.43,164.43,0,1,0,569.75,261.72,164.43,164.43,0,0,0,405.32,97.28Z" transform="translate(-146.34 -4)"/></g><g id="Livello_1" data-name="Livello 1"><polygon points="148.66 269.46 223.55 350.2 356.56 221.02 315.18 177.63 228.61 267.06 189.02 229.1 148.66 269.46"/></g></svg>