<svg xmlns="http://www.w3.org/2000/svg" viewBox="0 0 794 792"><defs><style>.cls-1,.cls-2{fill:none;stroke:#000;stroke-linecap:round;stroke-miterlimit:10;}.cls-1{stroke-width:31px;}.cls-2{stroke-width:10px;}</style></defs><title>BACK</title><g id="Livello_2" data-name="Livello 2"><path class="cls-1" d="M18.5,776V563.06a41,41,0,0,1,6.42-22.39c5.29-8.13,14.72-16.21,31.33-16,33.21.44,324.14,0,324.14,0" transform="translate(-3 -6.5)"/><path class="cls-1" d="M781.5,776V563.69a38.77,38.77,0,0,0-9.77-26c-6.32-7-16.56-13.15-33-13-37.58.44-366.73,0-366.73,0" transform="translate(-3 -6.5)"/><line class="cls-1" x1="65" y1="644" x2="721" y2="644"/><polyline class="cls-1" points="65 716 127 716 721 716"/><line class="cls-1" x1="125.5" y1="776.5" x2="125.5" y2="716.5"/><line class="cls-1" x1="666.5" y1="776.5" x2="666.5" y2="716.5"/><circle class="cls-1" cx="398.09" cy="582.66" r="3.18"/></g><g id="Livello_3" data-name="Livello 3"><circle class="cls-1" cx="468.74" cy="76.7" r="61.2"/><path class="cls-1" d="M417.5,308V428s-1.67,22.44-26.93,21.82-27.07-20.93-27.07-20.93V236s11-86.8,108.24-91.61" transform="translate(-3 -6.5)"/><path class="cls-1" d="M125.21,524.68s-35.09-6.53-33.85-34.23,18.47-36.32,33.85-36.93,169.59,0,169.59,0,10.71-59,60.62-59.09" transform="translate(-3 -6.5)"/><line class="cls-1" x1="415" y1="388" x2="519" y2="388"/><path class="cls-1" d="M583,394.5h68s56.36,8.54,54.89,58.4-25.74,72.16-65.48,72" transform="translate(-3 -6.5)"/><path class="cls-1" d="M525.5,308V428s1.67,22.44,26.93,21.82,27.07-20.93,27.07-20.93V236s-11-86.8-108.24-91.61" transform="translate(-3 -6.5)"/><circle class="cls-1" cx="241.74" cy="380.7" r="61.2"/><path class="cls-2" d="M147.88,92.1l16.51-21.23A4.82,4.82,0,0,1,173,74l-1,26.87a4.82,4.82,0,0,0,5.82,4.89l26.29-5.65a4.82,4.82,0,0,1,4.58,7.94l-18,19.95a4.82,4.82,0,0,0,1.32,7.49l23.77,12.57a4.82,4.82,0,0,1-1.59,9l-26.64,3.69a4.82,4.82,0,0,0-3.8,6.58l10.13,24.91a4.82,4.82,0,0,1-7,5.89l-22.78-14.3a4.82,4.82,0,0,0-7.14,2.6l-8.26,25.59a4.82,4.82,0,0,1-9.17,0l-8.26-25.59a4.82,4.82,0,0,0-7.14-2.6l-22.78,14.3a4.82,4.82,0,0,1-7-5.89l10.13-24.91a4.82,4.82,0,0,0-3.8-6.58L74,157.09a4.82,4.82,0,0,1-1.59-9l23.77-12.57A4.82,4.82,0,0,0,97.49,128l-18-19.95A4.82,4.82,0,0,1,84,100.12l26.29,5.65a4.82,4.82,0,0,0,5.82-4.89l-1-26.87a4.82,4.82,0,0,1,8.61-3.14L140.28,92.1A4.82,4.82,0,0,0,147.88,92.1Z" transform="translate(-3 -6.5)"/></g></svg>